<svg id="svg" version="1.1" xmlns="http://www.w3.org/2000/svg" xmlns:xlink="http://www.w3.org/1999/xlink" width="400" height="400" viewBox="0, 0, 400,400"><g id="svgg"><path id="path0" d="M191.800 78.808 C 167.363 79.939,157.219 81.215,152.000 83.813 C 148.908 85.352,144.914 86.405,132.231 89.022 C 125.752 90.359,122.803 91.893,117.124 96.885 C 112.954 100.549,111.217 101.853,106.996 104.488 C 105.894 105.175,104.743 106.541,103.322 108.845 C 102.184 110.690,100.296 113.310,99.127 114.667 C 90.848 124.268,90.072 126.372,88.152 144.400 C 87.283 152.554,86.851 225.262,87.585 239.776 C 88.476 257.399,91.092 271.024,94.102 273.722 C 98.284 277.469,99.693 279.080,100.785 281.360 C 102.102 284.111,104.581 286.707,107.089 287.961 C 109.377 289.104,111.432 290.971,112.602 292.967 C 114.181 295.661,115.617 296.719,119.903 298.344 C 123.880 299.852,128.235 302.175,131.400 304.476 C 136.808 308.409,142.996 309.758,159.600 310.625 C 169.546 311.144,181.174 312.134,196.000 313.723 C 198.541 313.996,207.152 314.154,217.800 314.125 C 235.325 314.076,240.782 313.797,255.762 312.182 L 261.324 311.583 263.834 312.757 C 265.214 313.403,267.121 314.644,268.072 315.514 C 269.022 316.384,270.874 317.699,272.188 318.436 C 275.725 320.421,277.367 322.303,279.654 326.997 C 280.886 329.525,282.253 331.695,283.114 332.488 C 283.897 333.210,286.081 335.347,287.969 337.238 C 293.583 342.865,291.495 342.400,311.167 342.400 C 329.495 342.400,328.315 342.529,332.245 340.088 L 333.889 339.066 332.793 336.633 C 332.191 335.295,331.326 332.681,330.871 330.825 C 329.908 326.892,329.312 325.980,326.288 323.806 C 323.432 321.753,322.476 320.558,320.103 316.075 C 318.285 312.640,317.528 311.485,314.348 307.300 L 313.057 305.600 314.229 304.052 C 314.873 303.201,316.120 301.613,317.000 300.523 C 317.880 299.433,319.809 296.989,321.286 295.092 C 323.213 292.618,324.796 291.087,326.886 289.677 C 328.489 288.595,330.970 286.408,332.400 284.816 C 333.830 283.225,336.381 280.522,338.068 278.811 C 342.409 274.408,342.930 273.178,343.748 265.400 C 346.903 235.411,346.900 235.498,346.673 188.800 C 346.513 155.791,346.381 148.719,345.855 145.200 C 345.510 142.890,345.025 138.390,344.777 135.200 C 343.767 122.230,342.237 116.122,339.411 113.772 C 335.076 110.166,334.052 109.089,332.883 106.901 C 331.285 103.910,329.650 102.385,326.135 100.608 C 324.281 99.670,322.604 98.425,321.382 97.079 C 316.727 91.956,317.303 92.336,311.143 90.323 C 307.976 89.288,303.158 88.071,300.400 87.610 C 294.209 86.576,291.867 85.925,287.837 84.117 C 279.176 80.232,262.351 78.795,223.200 78.597 C 209.890 78.530,195.760 78.625,191.800 78.808 M244.400 119.174 C 263.061 120.986,269.328 122.573,274.078 126.692 C 275.111 127.587,277.966 129.548,280.422 131.049 C 286.756 134.920,287.424 135.680,291.495 143.653 C 293.423 147.427,295.571 151.614,296.269 152.958 C 296.966 154.301,297.956 156.930,298.469 158.800 L 299.400 162.200 299.400 195.000 L 299.400 227.800 298.439 233.119 C 297.648 237.502,297.244 238.805,296.149 240.519 C 295.418 241.664,293.762 244.769,292.468 247.420 C 289.728 253.034,288.329 254.785,285.455 256.191 L 283.364 257.213 281.014 256.405 C 276.732 254.932,274.949 253.618,268.143 246.926 C 266.733 245.540,265.433 243.656,264.221 241.242 C 262.719 238.250,262.044 237.362,260.290 236.067 C 257.599 234.079,255.726 231.945,254.636 229.626 C 251.713 223.406,249.702 222.862,228.800 222.641 L 216.600 222.511 212.998 223.643 C 209.679 224.686,206.047 226.553,205.445 227.527 C 205.308 227.749,205.804 228.308,206.549 228.768 C 209.016 230.293,211.205 233.127,213.177 237.350 C 214.803 240.833,215.447 241.760,217.451 243.503 C 218.749 244.632,220.259 246.301,220.806 247.213 C 223.941 252.438,227.502 257.628,229.032 259.206 L 230.785 261.012 230.385 266.606 C 229.774 275.166,227.172 276.592,212.200 276.573 C 199.488 276.556,194.391 275.830,184.400 272.613 C 181.430 271.657,175.995 270.220,172.321 269.421 C 160.969 266.949,158.675 265.928,154.879 261.658 C 153.550 260.162,151.198 258.082,149.654 257.036 C 146.975 255.223,145.522 253.729,144.426 251.658 C 143.860 250.590,140.232 238.933,139.802 236.800 C 139.646 236.030,138.878 233.510,138.094 231.200 L 136.669 227.000 136.487 200.800 C 136.269 169.504,136.606 162.243,138.432 159.000 C 139.051 157.900,140.033 155.290,140.615 153.200 C 144.061 140.811,148.825 134.436,158.114 129.786 C 160.065 128.809,162.412 127.356,163.330 126.556 C 168.243 122.276,177.842 120.075,197.167 118.798 C 200.595 118.571,204.390 118.318,205.600 118.237 C 211.795 117.819,236.617 118.418,244.400 119.174 " stroke="none" fill="#bdbdbd" fill-rule="evenodd"></path><path id="path1" d="M180.000 59.608 C 172.733 59.988,164.427 60.793,163.667 61.190 C 163.278 61.393,163.789 62.285,165.549 64.472 C 167.785 67.252,168.575 68.025,172.374 71.156 L 173.749 72.289 165.535 72.581 C 155.332 72.943,149.618 72.614,147.308 71.530 C 142.731 69.383,130.007 69.113,125.600 71.070 C 123.526 71.991,123.313 72.224,121.874 75.147 C 120.014 78.924,116.934 82.937,116.130 82.629 C 114.392 81.961,105.742 81.906,104.489 82.554 C 102.668 83.496,102.933 85.482,105.156 87.559 C 106.257 88.588,107.200 91.444,107.200 93.752 C 107.200 95.948,102.030 95.993,101.682 93.800 C 101.221 90.892,100.083 89.979,96.572 89.697 L 94.101 89.499 91.621 91.979 C 88.214 95.386,88.750 99.772,92.751 101.232 C 95.288 102.158,96.404 104.748,95.059 106.587 C 94.000 108.035,88.843 106.945,85.641 104.597 C 82.519 102.307,81.747 104.648,83.049 112.460 C 83.406 114.603,83.593 116.773,83.465 117.282 C 82.971 119.253,77.851 123.489,73.714 125.350 C 70.412 126.836,70.444 126.138,70.369 199.200 L 70.307 260.600 71.235 265.559 L 72.162 270.518 74.781 271.696 C 79.051 273.616,79.235 273.726,80.026 274.837 C 81.454 276.841,82.061 280.275,82.284 287.600 C 82.401 291.450,82.677 294.825,82.898 295.100 C 83.534 295.895,91.600 295.797,91.600 294.994 C 91.600 293.896,94.204 292.947,95.009 293.752 C 95.934 294.677,95.128 295.600,93.394 295.600 C 91.707 295.600,91.600 295.931,91.600 301.154 L 91.600 305.443 92.900 306.671 C 95.444 309.076,106.271 308.929,109.600 306.445 C 111.444 305.070,117.006 304.630,117.464 305.824 C 117.761 306.596,117.083 315.012,116.644 316.024 C 116.415 316.550,117.119 316.762,121.086 317.367 C 123.679 317.762,127.355 318.324,129.256 318.616 C 136.498 319.726,137.845 320.570,139.010 324.722 C 139.886 327.843,139.708 327.729,145.400 328.798 C 149.814 329.627,150.956 329.681,159.600 329.468 C 168.071 329.259,170.899 329.008,181.200 327.553 C 185.029 327.011,236.098 326.643,244.200 327.098 C 249.025 327.369,251.274 327.301,255.683 326.749 C 260.519 326.145,261.417 326.131,263.283 326.630 C 264.447 326.942,266.592 327.312,268.050 327.451 L 270.699 327.706 271.574 330.953 C 272.272 333.546,272.496 335.774,272.684 342.020 L 272.919 349.840 276.111 350.941 C 277.867 351.546,280.315 352.701,281.552 353.507 L 283.800 354.972 308.550 355.128 C 338.458 355.317,338.715 355.301,340.837 353.114 C 341.697 352.228,342.400 351.277,342.400 350.999 C 342.400 350.722,343.042 350.005,343.827 349.406 C 346.571 347.314,348.043 344.527,349.600 338.475 C 349.969 337.041,350.190 336.771,350.907 336.875 C 352.046 337.040,352.324 338.340,352.774 345.600 C 353.486 357.077,356.626 360.766,363.992 358.778 C 372.893 356.376,376.310 351.026,371.060 347.712 C 368.343 345.996,365.930 343.494,363.755 340.136 L 361.642 336.872 358.721 336.632 C 357.114 336.501,355.080 336.349,354.200 336.296 L 352.600 336.200 352.400 331.768 C 352.126 325.692,351.128 324.000,347.820 324.000 C 343.018 324.000,343.049 324.077,343.022 312.400 C 342.996 301.187,342.716 300.152,339.190 298.233 C 336.136 296.571,335.550 295.102,337.244 293.354 L 338.557 292.000 342.778 291.996 C 349.819 291.988,349.826 291.985,350.534 288.853 C 352.085 281.995,354.086 279.047,358.608 276.958 C 363.119 274.874,363.362 274.102,363.093 262.734 C 362.977 257.820,362.699 252.810,362.475 251.600 C 360.820 242.668,360.737 239.577,360.899 193.000 C 361.035 154.040,361.142 147.555,361.721 143.254 C 363.007 133.711,363.236 128.651,362.667 122.400 C 362.033 115.429,361.916 115.172,358.972 114.244 C 354.393 112.801,352.209 109.411,350.389 100.925 C 349.835 98.339,349.111 98.019,343.100 97.709 C 340.735 97.587,338.800 97.333,338.800 97.146 C 338.800 96.958,338.035 96.252,337.100 95.576 L 335.400 94.347 335.200 90.338 C 334.959 85.501,334.599 85.046,330.731 84.685 C 322.277 83.895,318.430 80.781,317.431 73.920 C 317.115 71.750,317.614 71.981,310.633 70.778 C 304.828 69.779,300.560 70.007,295.800 71.572 C 291.759 72.901,271.911 73.378,265.640 72.297 C 265.331 72.243,267.019 70.502,269.390 68.426 C 273.837 64.535,276.269 61.709,275.680 61.120 C 274.262 59.702,200.491 58.536,180.000 59.608 M245.800 73.179 C 248.880 73.387,256.170 73.842,262.000 74.192 C 267.830 74.541,275.840 75.083,279.800 75.396 C 283.760 75.709,291.126 76.186,296.169 76.456 L 305.338 76.946 306.737 78.173 C 307.507 78.848,308.729 80.326,309.454 81.458 L 310.771 83.516 315.970 85.190 C 322.580 87.319,323.923 88.271,325.791 92.154 C 327.191 95.066,327.272 95.148,329.367 95.807 C 333.519 97.113,336.228 99.573,337.815 103.477 C 338.704 105.666,338.777 105.730,341.245 106.540 C 346.217 108.170,347.165 109.881,349.024 120.583 C 349.956 125.946,350.191 126.712,351.289 127.963 C 353.590 130.583,354.946 135.408,356.079 145.000 C 356.820 151.282,356.820 238.756,356.078 246.000 C 355.054 256.002,354.036 259.738,351.570 262.539 C 350.001 264.322,349.978 264.396,349.176 270.183 C 348.191 277.287,347.241 280.508,345.429 282.880 C 344.169 284.531,340.660 287.200,339.750 287.200 C 339.541 287.200,338.477 288.110,337.385 289.223 C 336.293 290.335,334.410 292.000,333.200 292.922 C 331.990 293.844,330.853 294.829,330.674 295.111 C 330.494 295.393,329.648 296.064,328.794 296.604 C 326.616 297.979,320.985 305.459,321.584 306.181 C 321.830 306.477,323.257 309.109,324.756 312.030 L 327.482 317.341 329.950 318.016 C 333.812 319.074,334.770 320.278,335.711 325.259 C 336.506 329.469,338.118 332.299,340.400 333.491 C 344.877 335.829,345.806 338.201,343.561 341.563 C 339.148 348.172,337.494 348.500,309.546 348.311 C 282.355 348.126,282.954 348.350,276.537 336.000 C 276.022 335.010,275.301 332.760,274.934 331.000 C 274.004 326.543,273.136 325.482,269.721 324.625 C 266.797 323.892,262.387 321.948,261.660 321.073 C 261.290 320.627,260.516 320.696,257.107 321.478 C 244.921 324.276,187.882 323.948,174.000 321.001 C 172.570 320.698,169.330 320.070,166.800 319.607 C 164.270 319.144,161.210 318.312,160.000 317.758 C 158.377 317.016,156.646 316.651,153.400 316.365 C 150.981 316.153,146.661 315.636,143.800 315.216 C 140.940 314.797,137.340 314.341,135.800 314.203 C 126.903 313.404,124.128 311.964,122.021 307.050 C 121.172 305.067,118.339 303.375,113.955 302.231 C 110.410 301.306,108.672 299.829,107.569 296.804 C 106.579 294.087,106.018 293.492,103.800 292.806 C 99.700 291.538,97.430 289.343,96.151 285.411 C 95.311 282.827,94.723 282.185,92.505 281.429 C 87.681 279.786,86.404 277.402,84.600 266.678 C 83.549 260.434,83.191 259.029,82.563 258.689 C 81.099 257.896,78.678 255.030,77.738 252.977 C 75.853 248.859,75.800 247.332,75.800 197.000 L 75.800 149.800 76.723 145.200 C 77.847 139.597,78.626 137.894,81.335 135.119 C 83.366 133.039,83.453 132.855,84.146 129.186 C 86.417 117.163,88.241 113.357,92.685 111.360 C 95.393 110.143,98.023 106.884,98.931 103.618 C 99.684 100.909,101.128 99.453,103.718 98.791 C 106.078 98.187,105.966 98.247,108.400 96.294 C 110.092 94.936,110.758 94.073,111.283 92.559 C 112.565 88.861,116.941 86.236,125.039 84.308 L 128.834 83.405 129.997 81.344 C 132.600 76.731,135.094 75.813,145.200 75.746 C 149.710 75.716,157.810 75.402,163.200 75.048 C 168.590 74.694,177.320 74.120,182.600 73.773 C 187.880 73.427,195.350 72.990,199.200 72.802 C 207.510 72.397,237.842 72.642,245.800 73.179 M198.000 123.991 C 188.837 124.469,183.480 125.111,179.000 126.265 C 176.800 126.832,174.614 127.382,174.143 127.487 C 173.671 127.591,172.522 128.479,171.588 129.458 C 169.521 131.627,167.662 132.612,163.748 133.613 C 160.315 134.491,160.529 134.386,157.494 136.699 C 156.049 137.800,154.958 139.007,154.575 139.928 C 153.664 142.118,152.164 144.131,150.873 144.893 C 146.554 147.445,146.203 152.035,146.506 202.002 L 146.728 238.604 148.181 243.802 C 148.980 246.661,149.728 249.315,149.844 249.700 C 149.959 250.085,150.235 250.400,150.457 250.400 C 151.723 250.400,157.036 254.185,160.393 257.480 C 166.996 263.960,174.159 265.627,196.200 265.812 C 205.158 265.887,205.934 265.952,207.800 266.782 C 209.920 267.724,215.217 269.200,216.481 269.200 C 217.627 269.200,220.980 265.833,222.251 263.405 L 223.382 261.246 220.203 256.592 C 216.507 251.180,217.062 251.662,213.948 251.161 C 208.613 250.301,208.673 250.391,208.174 242.510 C 207.888 237.994,206.877 235.855,204.800 235.374 C 196.941 233.552,196.992 223.475,204.893 217.080 L 206.361 215.891 222.681 215.599 C 237.731 215.329,239.047 215.359,239.608 215.983 C 240.037 216.461,241.683 216.863,245.208 217.350 C 255.396 218.758,257.951 220.292,259.226 225.766 C 259.827 228.348,260.825 229.438,262.889 229.768 C 266.345 230.321,268.166 232.473,268.649 236.574 C 269.008 239.633,271.006 242.223,274.401 244.033 C 275.835 244.797,277.755 246.329,279.078 247.765 C 282.404 251.374,283.143 251.793,284.289 250.717 C 284.790 250.246,285.200 249.714,285.200 249.535 C 285.200 249.356,286.139 246.912,287.287 244.105 L 289.374 239.000 289.622 233.000 C 289.789 228.981,290.218 225.283,290.924 221.800 L 291.977 216.600 291.988 194.756 C 292.001 171.981,291.525 162.627,290.183 159.275 C 289.854 158.451,289.073 155.893,288.449 153.589 C 287.343 149.513,283.719 141.638,282.067 139.725 C 280.761 138.212,272.664 133.353,269.935 132.445 C 267.213 131.539,265.117 130.231,264.130 128.821 C 261.416 124.947,227.362 122.460,198.000 123.991 M244.200 126.403 C 254.064 127.099,255.314 127.416,256.147 129.429 C 257.921 133.719,260.554 135.193,267.397 135.727 C 274.187 136.257,276.627 137.574,277.425 141.140 C 278.059 143.974,279.005 145.196,281.497 146.397 C 283.869 147.539,284.515 148.652,285.215 152.800 C 285.456 154.230,285.988 156.750,286.398 158.400 C 287.742 163.814,288.000 169.485,288.000 193.618 L 288.000 217.098 287.001 220.159 C 286.451 221.842,285.485 224.250,284.854 225.510 L 283.707 227.800 284.437 229.501 C 285.203 231.284,286.399 236.513,286.401 238.083 C 286.401 238.587,285.737 240.834,284.925 243.075 L 283.448 247.150 281.407 245.025 C 279.256 242.786,277.531 241.745,274.131 240.633 C 271.278 239.700,271.043 239.329,271.679 236.763 L 272.200 234.659 277.309 231.232 L 282.419 227.804 281.309 227.032 C 279.030 225.447,275.753 221.715,274.432 219.200 C 272.771 216.037,272.960 216.167,269.539 215.849 C 264.382 215.370,262.656 213.906,262.203 209.626 C 262.074 208.402,261.835 206.860,261.672 206.200 L 261.376 205.000 255.752 204.200 C 250.932 203.514,249.160 203.446,243.364 203.719 C 232.562 204.228,195.479 203.658,183.044 202.792 L 172.287 202.044 170.444 202.979 C 166.600 204.928,166.573 206.411,170.261 213.062 C 172.248 216.645,171.990 216.543,177.940 216.094 L 183.097 215.704 185.273 214.061 C 190.955 209.771,194.665 208.899,196.974 211.309 C 199.533 213.979,199.987 215.884,198.688 218.502 C 197.517 220.860,196.653 223.763,195.985 227.589 C 195.382 231.040,194.907 231.830,192.794 232.897 C 190.526 234.043,190.065 235.440,190.052 241.200 C 190.030 251.376,191.206 254.997,195.441 257.800 C 196.770 258.680,198.337 259.784,198.923 260.253 L 199.988 261.106 198.294 261.561 C 195.231 262.385,184.805 262.822,178.000 262.412 C 170.750 261.975,169.452 261.562,169.053 259.564 C 168.672 257.661,165.813 255.013,163.348 254.281 C 159.579 253.162,156.318 250.334,155.547 247.515 C 154.785 244.733,153.875 243.359,151.963 242.107 C 149.389 240.421,149.465 240.620,149.738 236.231 C 149.876 234.014,150.186 231.570,150.427 230.800 C 151.191 228.355,151.023 171.454,150.217 159.843 C 149.476 149.171,149.379 149.642,152.420 149.161 C 156.285 148.550,157.049 147.523,157.592 142.203 C 158.014 138.078,159.561 136.405,162.967 136.393 C 173.559 136.356,180.800 133.050,180.800 128.251 C 180.800 126.398,225.635 125.091,244.200 126.403 M173.200 205.600 C 173.685 205.914,173.628 205.989,172.900 205.994 C 172.405 205.997,172.000 205.820,172.000 205.600 C 172.000 205.099,172.424 205.099,173.200 205.600 M182.827 218.967 C 181.749 220.267,181.343 227.285,182.255 228.852 C 183.417 230.847,186.408 230.628,187.567 228.462 C 188.205 227.269,183.598 218.039,182.827 218.967 M205.757 238.731 C 205.869 238.912,205.857 239.462,205.729 239.951 L 205.496 240.842 204.544 239.947 C 203.833 239.279,203.719 238.971,204.096 238.732 C 204.752 238.315,205.500 238.315,205.757 238.731 M218.743 258.155 L 220.785 261.110 219.751 262.655 C 217.894 265.428,217.109 266.082,215.922 265.844 C 214.341 265.528,209.838 263.257,208.391 262.047 L 207.141 261.000 208.082 259.606 C 209.127 258.059,211.271 256.689,214.000 255.825 C 216.624 254.995,216.525 254.946,218.743 258.155 M330.893 301.863 C 334.463 303.661,333.210 309.920,328.827 312.186 L 327.749 312.744 326.067 309.272 C 324.040 305.089,324.038 305.674,326.092 303.018 C 327.912 300.666,328.322 300.568,330.893 301.863 M339.375 306.994 C 339.071 308.611,338.578 308.521,338.195 306.779 C 337.871 305.300,338.702 303.925,339.289 304.972 C 339.480 305.315,339.519 306.225,339.375 306.994 M341.302 325.300 C 342.587 326.282,342.603 327.864,341.331 328.168 C 340.709 328.316,339.900 328.527,339.532 328.636 C 338.690 328.885,338.245 327.619,338.602 325.991 C 338.889 324.683,340.091 324.375,341.302 325.300 M365.053 348.688 C 366.872 350.148,366.702 350.511,363.281 352.468 L 361.056 353.741 359.528 352.019 C 357.663 349.917,357.664 349.980,359.443 346.423 L 360.886 343.539 362.209 345.503 C 362.937 346.584,364.217 348.017,365.053 348.688 " stroke="none" fill="#fafafa" fill-rule="evenodd"></path><path id="path2" d="M201.200 74.668 C 161.857 76.386,140.494 78.981,137.384 82.417 C 136.986 82.858,135.116 83.676,133.230 84.235 C 119.576 88.284,117.077 89.470,114.122 93.304 C 112.231 95.758,108.205 99.173,105.132 100.929 C 103.086 102.098,102.454 102.806,99.670 107.053 C 97.505 110.355,95.247 112.916,93.058 114.552 C 89.114 117.500,85.797 127.521,83.774 142.600 C 83.627 143.700,83.095 145.796,82.592 147.258 C 80.921 152.117,80.698 159.253,80.899 201.400 C 81.053 233.715,81.177 240.180,81.680 242.200 C 82.600 245.887,85.447 259.547,86.599 265.800 C 88.145 274.196,89.115 276.132,93.026 278.634 C 95.310 280.095,96.591 281.569,97.983 284.340 C 99.261 286.884,101.796 289.445,104.143 290.562 C 106.239 291.559,108.480 293.642,109.780 295.800 C 111.185 298.130,112.555 299.181,116.357 300.842 C 121.492 303.086,124.482 305.037,125.999 307.134 C 128.581 310.701,141.146 313.738,156.800 314.580 C 170.563 315.319,177.631 316.141,181.265 317.423 C 192.489 321.383,240.361 321.511,255.200 317.620 C 260.812 316.149,261.214 316.137,262.418 317.420 C 263.930 319.029,267.354 321.145,270.089 322.161 C 272.955 323.226,276.116 326.561,276.574 329.004 C 277.041 331.491,279.565 335.905,281.540 337.688 C 282.583 338.630,283.857 340.030,284.372 340.800 C 285.670 342.744,287.263 343.950,290.138 345.162 L 292.600 346.200 310.757 346.312 C 330.486 346.433,330.657 346.418,335.525 344.121 C 337.553 343.164,341.200 339.874,341.200 339.001 C 341.200 338.774,340.391 337.804,339.401 336.845 C 337.259 334.769,335.660 332.052,334.247 328.089 C 332.530 323.273,331.376 321.686,328.559 320.266 C 326.726 319.342,324.991 317.166,323.150 313.479 C 322.249 311.676,320.890 309.167,320.130 307.904 C 319.317 306.555,318.871 305.401,319.048 305.104 C 321.638 300.765,327.146 294.505,330.346 292.262 C 332.080 291.047,334.647 288.765,336.050 287.190 C 339.010 283.866,338.805 284.063,341.412 282.063 C 345.305 279.078,346.511 275.620,348.202 262.600 C 349.259 254.455,349.563 252.860,351.402 245.800 C 353.051 239.470,353.288 231.429,353.089 188.600 C 352.897 147.292,352.943 148.146,350.601 142.542 C 350.264 141.735,349.363 136.738,348.598 131.438 C 346.048 113.770,345.401 111.916,340.886 109.342 C 338.253 107.841,337.340 106.943,335.909 104.440 C 334.239 101.522,332.112 99.470,329.271 98.036 C 326.218 96.495,324.772 95.249,323.212 92.819 C 321.318 89.867,318.813 88.458,310.400 85.613 C 306.330 84.237,302.100 82.685,301.000 82.165 C 290.282 77.101,237.051 73.102,201.200 74.668 M257.800 79.360 C 274.588 80.394,282.239 81.606,287.837 84.117 C 291.867 85.925,294.209 86.576,300.400 87.610 C 303.158 88.071,307.976 89.288,311.143 90.323 C 317.303 92.336,316.727 91.956,321.382 97.079 C 322.604 98.425,324.281 99.670,326.135 100.608 C 329.650 102.385,331.285 103.910,332.883 106.901 C 334.052 109.089,335.076 110.166,339.411 113.772 C 342.237 116.122,343.767 122.230,344.777 135.200 C 345.025 138.390,345.510 142.890,345.855 145.200 C 346.381 148.719,346.513 155.791,346.673 188.800 C 346.900 235.498,346.903 235.411,343.748 265.400 C 342.930 273.178,342.409 274.408,338.068 278.811 C 336.381 280.522,333.830 283.225,332.400 284.816 C 330.970 286.408,328.489 288.595,326.886 289.677 C 324.796 291.087,323.213 292.618,321.286 295.092 C 319.809 296.989,317.880 299.433,317.000 300.523 C 316.120 301.613,314.873 303.201,314.229 304.052 L 313.057 305.600 314.348 307.300 C 317.528 311.485,318.285 312.640,320.103 316.075 C 322.476 320.558,323.432 321.753,326.288 323.806 C 329.312 325.980,329.908 326.892,330.871 330.825 C 331.326 332.681,332.191 335.295,332.793 336.633 L 333.889 339.066 332.245 340.088 C 328.315 342.529,329.495 342.400,311.167 342.400 C 291.495 342.400,293.583 342.865,287.969 337.238 C 286.081 335.347,283.897 333.210,283.114 332.488 C 282.253 331.695,280.886 329.525,279.654 326.997 C 277.367 322.303,275.725 320.421,272.188 318.436 C 270.874 317.699,269.022 316.384,268.072 315.514 C 267.121 314.644,265.214 313.403,263.834 312.757 L 261.324 311.583 255.762 312.182 C 240.782 313.797,235.325 314.076,217.800 314.125 C 207.152 314.154,198.541 313.996,196.000 313.723 C 181.174 312.134,169.546 311.144,159.600 310.625 C 142.996 309.758,136.808 308.409,131.400 304.476 C 128.235 302.175,123.880 299.852,119.903 298.344 C 115.617 296.719,114.181 295.661,112.602 292.967 C 111.432 290.971,109.377 289.104,107.089 287.961 C 104.581 286.707,102.102 284.111,100.785 281.360 C 99.693 279.080,98.284 277.469,94.102 273.722 C 91.092 271.024,88.476 257.399,87.585 239.776 C 86.851 225.262,87.283 152.554,88.152 144.400 C 90.072 126.372,90.848 124.268,99.127 114.667 C 100.296 113.310,102.184 110.690,103.322 108.845 C 104.743 106.541,105.894 105.175,106.996 104.488 C 111.217 101.853,112.954 100.549,117.124 96.885 C 122.803 91.893,125.752 90.359,132.231 89.022 C 144.914 86.405,148.908 85.352,152.000 83.813 C 157.219 81.215,167.363 79.939,191.800 78.808 C 203.440 78.270,245.851 78.624,257.800 79.360 M205.600 118.237 C 204.390 118.318,200.595 118.571,197.167 118.798 C 177.842 120.075,168.243 122.276,163.330 126.556 C 162.412 127.356,160.065 128.809,158.114 129.786 C 148.825 134.436,144.061 140.811,140.615 153.200 C 140.033 155.290,139.051 157.900,138.432 159.000 C 136.606 162.243,136.269 169.504,136.487 200.800 L 136.669 227.000 138.094 231.200 C 138.878 233.510,139.646 236.030,139.802 236.800 C 141.967 247.530,145.092 253.948,149.654 257.036 C 151.198 258.082,153.550 260.162,154.879 261.658 C 158.675 265.928,160.969 266.949,172.321 269.421 C 175.995 270.220,181.430 271.657,184.400 272.613 C 194.391 275.830,199.488 276.556,212.200 276.573 C 227.172 276.592,229.774 275.166,230.385 266.606 L 230.785 261.012 229.032 259.206 C 227.502 257.628,223.941 252.438,220.806 247.213 C 220.259 246.301,218.749 244.632,217.451 243.503 C 215.447 241.760,214.803 240.833,213.177 237.350 C 211.205 233.127,209.016 230.293,206.549 228.768 C 205.804 228.308,205.308 227.749,205.445 227.527 C 206.047 226.553,209.679 224.686,212.998 223.643 L 216.600 222.511 228.800 222.641 C 249.702 222.862,251.713 223.406,254.636 229.626 C 255.726 231.945,257.599 234.079,260.290 236.067 C 262.044 237.362,262.719 238.250,264.221 241.242 C 265.433 243.656,266.733 245.540,268.143 246.926 C 274.949 253.618,276.732 254.932,281.014 256.405 L 283.364 257.213 285.455 256.191 C 288.329 254.785,289.728 253.034,292.468 247.420 C 293.762 244.769,295.418 241.664,296.149 240.519 C 297.244 238.805,297.648 237.502,298.439 233.119 L 299.400 227.800 299.400 195.000 L 299.400 162.200 298.469 158.800 C 297.956 156.930,296.966 154.301,296.269 152.958 C 295.571 151.614,293.423 147.427,291.495 143.653 C 287.424 135.680,286.756 134.920,280.422 131.049 C 277.966 129.548,275.111 127.587,274.078 126.692 C 269.328 122.573,263.061 120.986,244.400 119.174 C 236.617 118.418,211.795 117.819,205.600 118.237 M243.803 122.586 C 257.233 123.678,265.096 125.543,268.192 128.371 C 268.636 128.777,269.810 129.516,270.800 130.014 C 271.790 130.511,275.186 132.556,278.346 134.559 L 284.092 138.200 286.902 143.800 C 288.448 146.880,290.235 151.008,290.874 152.974 C 291.513 154.940,292.613 157.820,293.318 159.374 L 294.600 162.200 294.600 195.000 C 294.600 227.509,294.592 227.820,293.748 230.000 C 293.280 231.210,292.684 233.550,292.424 235.200 C 291.335 242.102,285.675 253.200,283.243 253.200 C 282.326 253.200,278.563 250.684,276.400 248.626 C 275.410 247.683,273.777 246.361,272.772 245.687 C 270.492 244.158,267.789 240.699,266.762 237.997 C 265.714 235.239,264.534 233.718,262.526 232.538 C 260.273 231.214,258.226 228.874,257.166 226.410 C 254.350 219.864,247.937 218.277,225.400 218.548 C 209.737 218.737,206.502 219.178,204.553 221.394 C 202.734 223.461,200.742 227.373,201.057 228.261 C 201.547 229.645,203.260 231.628,204.814 232.609 C 207.270 234.159,209.587 237.560,210.468 240.906 C 211.429 244.560,212.885 246.687,215.220 247.850 C 216.775 248.626,217.659 249.652,221.321 254.932 L 225.603 261.107 224.806 263.687 C 222.393 271.498,218.766 272.914,206.564 270.806 C 204.124 270.385,200.164 269.845,197.764 269.605 C 195.364 269.366,193.130 269.091,192.800 268.994 C 192.250 268.832,182.443 267.376,175.200 266.380 C 172.220 265.970,166.408 264.261,162.941 262.775 C 161.764 262.270,159.915 260.753,157.665 258.445 C 155.664 256.393,153.222 254.345,151.885 253.599 C 149.020 252.000,147.914 250.541,147.035 247.200 C 146.658 245.770,145.927 243.250,145.410 241.600 C 144.887 239.932,144.363 237.001,144.231 235.000 C 144.099 233.020,143.823 229.420,143.616 227.000 C 143.143 221.452,143.125 168.775,143.595 163.400 C 144.677 151.009,145.839 147.461,150.926 141.013 C 155.038 135.799,158.416 133.145,162.884 131.614 C 165.358 130.766,166.170 130.293,169.602 127.698 C 176.283 122.648,213.239 120.102,243.803 122.586 " stroke="none" fill="#74cca4" fill-rule="evenodd"></path><path id="path3" d="M199.200 72.802 C 195.350 72.990,187.880 73.427,182.600 73.773 C 177.320 74.120,168.590 74.694,163.200 75.048 C 157.810 75.402,149.710 75.716,145.200 75.746 C 135.094 75.813,132.600 76.731,129.997 81.344 L 128.834 83.405 125.039 84.308 C 116.941 86.236,112.565 88.861,111.283 92.559 C 110.758 94.073,110.092 94.936,108.400 96.294 C 105.966 98.247,106.078 98.187,103.718 98.791 C 101.128 99.453,99.684 100.909,98.931 103.618 C 98.023 106.884,95.393 110.143,92.685 111.360 C 88.241 113.357,86.417 117.163,84.146 129.186 C 83.453 132.855,83.366 133.039,81.335 135.119 C 78.626 137.894,77.847 139.597,76.723 145.200 L 75.800 149.800 75.800 197.000 C 75.800 247.332,75.853 248.859,77.738 252.977 C 78.678 255.030,81.099 257.896,82.563 258.689 C 83.191 259.029,83.549 260.434,84.600 266.678 C 86.404 277.402,87.681 279.786,92.505 281.429 C 94.723 282.185,95.311 282.827,96.151 285.411 C 97.430 289.343,99.700 291.538,103.800 292.806 C 106.018 293.492,106.579 294.087,107.569 296.804 C 108.672 299.829,110.410 301.306,113.955 302.231 C 118.339 303.375,121.172 305.067,122.021 307.050 C 124.128 311.964,126.903 313.404,135.800 314.203 C 137.340 314.341,140.940 314.797,143.800 315.216 C 146.661 315.636,150.981 316.153,153.400 316.365 C 156.646 316.651,158.377 317.016,160.000 317.758 C 161.210 318.312,164.270 319.144,166.800 319.607 C 169.330 320.070,172.570 320.698,174.000 321.001 C 187.882 323.948,244.921 324.276,257.107 321.478 C 260.516 320.696,261.290 320.627,261.660 321.073 C 262.387 321.948,266.797 323.892,269.721 324.625 C 273.136 325.482,274.004 326.543,274.934 331.000 C 275.301 332.760,276.022 335.010,276.537 336.000 C 282.954 348.350,282.355 348.126,309.546 348.311 C 337.494 348.500,339.148 348.172,343.561 341.563 C 345.806 338.201,344.877 335.829,340.400 333.491 C 338.118 332.299,336.506 329.469,335.711 325.259 C 334.770 320.278,333.812 319.074,329.950 318.016 L 327.482 317.341 324.756 312.030 C 323.257 309.109,321.830 306.477,321.584 306.181 C 320.985 305.459,326.616 297.979,328.794 296.604 C 329.648 296.064,330.494 295.393,330.674 295.111 C 330.853 294.829,331.990 293.844,333.200 292.922 C 334.410 292.000,336.293 290.335,337.385 289.223 C 338.477 288.110,339.541 287.200,339.750 287.200 C 340.660 287.200,344.169 284.531,345.429 282.880 C 347.241 280.508,348.191 277.287,349.176 270.183 C 349.978 264.396,350.001 264.322,351.570 262.539 C 354.036 259.738,355.054 256.002,356.078 246.000 C 356.820 238.756,356.820 151.282,356.079 145.000 C 354.946 135.408,353.590 130.583,351.289 127.963 C 350.191 126.712,349.956 125.946,349.024 120.583 C 347.165 109.881,346.217 108.170,341.245 106.540 C 338.777 105.730,338.704 105.666,337.815 103.477 C 336.228 99.573,333.519 97.113,329.367 95.807 C 327.272 95.148,327.191 95.066,325.791 92.154 C 323.923 88.271,322.580 87.319,315.970 85.190 L 310.771 83.516 309.454 81.458 C 308.729 80.326,307.507 78.848,306.737 78.173 L 305.338 76.946 296.169 76.456 C 291.126 76.186,283.760 75.709,279.800 75.396 C 275.840 75.083,267.830 74.541,262.000 74.192 C 256.170 73.842,248.880 73.387,245.800 73.179 C 237.842 72.642,207.510 72.397,199.200 72.802 M238.200 74.802 C 275.149 76.329,293.104 78.434,301.000 82.165 C 302.100 82.685,306.330 84.237,310.400 85.613 C 318.813 88.458,321.318 89.867,323.212 92.819 C 324.772 95.249,326.218 96.495,329.271 98.036 C 332.112 99.470,334.239 101.522,335.909 104.440 C 337.340 106.943,338.253 107.841,340.886 109.342 C 345.401 111.916,346.048 113.770,348.598 131.438 C 349.363 136.738,350.264 141.735,350.601 142.542 C 352.943 148.146,352.897 147.292,353.089 188.600 C 353.288 231.429,353.051 239.470,351.402 245.800 C 349.563 252.860,349.259 254.455,348.202 262.600 C 346.511 275.620,345.305 279.078,341.412 282.063 C 338.805 284.063,339.010 283.866,336.050 287.190 C 334.647 288.765,332.080 291.047,330.346 292.262 C 327.146 294.505,321.638 300.765,319.048 305.104 C 318.871 305.401,319.317 306.555,320.130 307.904 C 320.890 309.167,322.249 311.676,323.150 313.479 C 324.991 317.166,326.726 319.342,328.559 320.266 C 331.376 321.686,332.530 323.273,334.247 328.089 C 335.660 332.052,337.259 334.769,339.401 336.845 C 340.391 337.804,341.200 338.774,341.200 339.001 C 341.200 339.874,337.553 343.164,335.525 344.121 C 330.657 346.418,330.486 346.433,310.757 346.312 L 292.600 346.200 290.138 345.162 C 287.263 343.950,285.670 342.744,284.372 340.800 C 283.857 340.030,282.583 338.630,281.540 337.688 C 279.565 335.905,277.041 331.491,276.574 329.004 C 276.116 326.561,272.955 323.226,270.089 322.161 C 267.354 321.145,263.930 319.029,262.418 317.420 C 261.214 316.137,260.812 316.149,255.200 317.620 C 240.361 321.511,192.489 321.383,181.265 317.423 C 177.631 316.141,170.563 315.319,156.800 314.580 C 141.146 313.738,128.581 310.701,125.999 307.134 C 124.482 305.037,121.492 303.086,116.357 300.842 C 112.555 299.181,111.185 298.130,109.780 295.800 C 108.480 293.642,106.239 291.559,104.143 290.562 C 101.796 289.445,99.261 286.884,97.983 284.340 C 96.591 281.569,95.310 280.095,93.026 278.634 C 89.115 276.132,88.145 274.196,86.599 265.800 C 85.447 259.547,82.600 245.887,81.680 242.200 C 81.177 240.180,81.053 233.715,80.899 201.400 C 80.698 159.253,80.921 152.117,82.592 147.258 C 83.095 145.796,83.627 143.700,83.774 142.600 C 85.797 127.521,89.114 117.500,93.058 114.552 C 95.247 112.916,97.505 110.355,99.670 107.053 C 102.454 102.806,103.086 102.098,105.132 100.929 C 108.205 99.173,112.231 95.758,114.122 93.304 C 117.077 89.470,119.576 88.284,133.230 84.235 C 135.116 83.676,136.986 82.858,137.384 82.417 C 140.494 78.981,161.857 76.386,201.200 74.668 C 208.043 74.369,229.618 74.447,238.200 74.802 M203.454 121.988 C 184.753 122.707,173.751 124.563,169.602 127.698 C 166.170 130.293,165.358 130.766,162.884 131.614 C 158.416 133.145,155.038 135.799,150.926 141.013 C 145.839 147.461,144.677 151.009,143.595 163.400 C 143.125 168.775,143.143 221.452,143.616 227.000 C 143.823 229.420,144.099 233.020,144.231 235.000 C 144.363 237.001,144.887 239.932,145.410 241.600 C 145.927 243.250,146.658 245.770,147.035 247.200 C 147.914 250.541,149.020 252.000,151.885 253.599 C 153.222 254.345,155.664 256.393,157.665 258.445 C 159.915 260.753,161.764 262.270,162.941 262.775 C 166.408 264.261,172.220 265.970,175.200 266.380 C 182.443 267.376,192.250 268.832,192.800 268.994 C 193.130 269.091,195.364 269.366,197.764 269.605 C 200.164 269.845,204.124 270.385,206.564 270.806 C 218.766 272.914,222.393 271.498,224.806 263.687 L 225.603 261.107 221.321 254.932 C 217.659 249.652,216.775 248.626,215.220 247.850 C 212.885 246.687,211.429 244.560,210.468 240.906 C 209.587 237.560,207.270 234.159,204.814 232.609 C 203.260 231.628,201.547 229.645,201.057 228.261 C 200.742 227.373,202.734 223.461,204.553 221.394 C 206.502 219.178,209.737 218.737,225.400 218.548 C 247.937 218.277,254.350 219.864,257.166 226.410 C 258.226 228.874,260.273 231.214,262.526 232.538 C 264.534 233.718,265.714 235.239,266.762 237.997 C 267.789 240.699,270.492 244.158,272.772 245.687 C 273.777 246.361,275.410 247.683,276.400 248.626 C 278.563 250.684,282.326 253.200,283.243 253.200 C 285.675 253.200,291.335 242.102,292.424 235.200 C 292.684 233.550,293.280 231.210,293.748 230.000 C 294.592 227.820,294.600 227.509,294.600 195.000 L 294.600 162.200 293.318 159.374 C 292.613 157.820,291.513 154.940,290.874 152.974 C 290.235 151.008,288.448 146.880,286.902 143.800 L 284.092 138.200 278.346 134.559 C 275.186 132.556,271.790 130.511,270.800 130.014 C 269.810 129.516,268.636 128.777,268.192 128.371 C 262.749 123.399,235.823 120.745,203.454 121.988 M245.200 124.405 C 255.832 125.336,262.832 126.969,264.130 128.821 C 265.117 130.231,267.213 131.539,269.935 132.445 C 272.664 133.353,280.761 138.212,282.067 139.725 C 283.719 141.638,287.343 149.513,288.449 153.589 C 289.073 155.893,289.854 158.451,290.183 159.275 C 291.525 162.627,292.001 171.981,291.988 194.756 L 291.977 216.600 290.924 221.800 C 290.218 225.283,289.789 228.981,289.622 233.000 L 289.374 239.000 287.287 244.105 C 286.139 246.912,285.200 249.356,285.200 249.535 C 285.200 249.714,284.790 250.246,284.289 250.717 C 283.143 251.793,282.404 251.374,279.078 247.765 C 277.755 246.329,275.835 244.797,274.401 244.033 C 271.006 242.223,269.008 239.633,268.649 236.574 C 268.166 232.473,266.345 230.321,262.889 229.768 C 260.825 229.438,259.827 228.348,259.226 225.766 C 257.951 220.292,255.396 218.758,245.208 217.350 C 241.683 216.863,240.037 216.461,239.608 215.983 C 239.047 215.359,237.731 215.329,222.681 215.599 L 206.361 215.891 204.893 217.080 C 196.992 223.475,196.941 233.552,204.800 235.374 C 206.877 235.855,207.888 237.994,208.174 242.510 C 208.673 250.391,208.613 250.301,213.948 251.161 C 217.062 251.662,216.507 251.180,220.203 256.592 L 223.382 261.246 222.251 263.405 C 220.980 265.833,217.627 269.200,216.481 269.200 C 215.217 269.200,209.920 267.724,207.800 266.782 C 205.934 265.952,205.158 265.887,196.200 265.812 C 174.159 265.627,166.996 263.960,160.393 257.480 C 157.036 254.185,151.723 250.400,150.457 250.400 C 150.235 250.400,149.959 250.085,149.844 249.700 C 149.728 249.315,148.980 246.661,148.181 243.802 L 146.728 238.604 146.506 202.002 C 146.203 152.035,146.554 147.445,150.873 144.893 C 152.164 144.131,153.664 142.118,154.575 139.928 C 154.958 139.007,156.049 137.800,157.494 136.699 C 160.529 134.386,160.315 134.491,163.748 133.613 C 167.662 132.612,169.521 131.627,171.588 129.458 C 172.522 128.479,173.671 127.591,174.143 127.487 C 174.614 127.382,176.800 126.832,179.000 126.265 C 188.369 123.850,226.589 122.776,245.200 124.405 M172.000 205.600 C 172.000 205.820,172.405 205.997,172.900 205.994 C 173.628 205.989,173.685 205.914,173.200 205.600 C 172.424 205.099,172.000 205.099,172.000 205.600 M338.435 304.958 C 337.916 305.583,338.158 307.803,338.787 308.192 C 339.264 308.487,339.697 305.703,339.289 304.972 C 338.977 304.415,338.886 304.414,338.435 304.958 M359.443 346.423 C 357.664 349.980,357.663 349.917,359.528 352.019 L 361.056 353.741 363.281 352.468 C 366.702 350.511,366.872 350.148,365.053 348.688 C 364.217 348.017,362.937 346.584,362.209 345.503 L 360.886 343.539 359.443 346.423 " stroke="none" fill="#7cd4ac" fill-rule="evenodd"></path><path id="path4" d="M0.000 200.000 L 0.000 400.000 200.000 400.000 L 400.000 400.000 400.000 200.000 L 400.000 0.000 200.000 0.000 L 0.000 0.000 0.000 200.000 M268.371 60.145 C 272.206 60.496,275.494 60.934,275.680 61.120 C 276.269 61.709,273.837 64.535,269.390 68.426 C 267.019 70.502,265.331 72.243,265.640 72.297 C 271.911 73.378,291.759 72.901,295.800 71.572 C 300.560 70.007,304.828 69.779,310.633 70.778 C 317.614 71.981,317.115 71.750,317.431 73.920 C 318.430 80.781,322.277 83.895,330.731 84.685 C 334.599 85.046,334.959 85.501,335.200 90.338 L 335.400 94.347 337.100 95.576 C 338.035 96.252,338.800 96.958,338.800 97.146 C 338.800 97.333,340.735 97.587,343.100 97.709 C 349.111 98.019,349.835 98.339,350.389 100.925 C 352.209 109.411,354.393 112.801,358.972 114.244 C 361.916 115.172,362.033 115.429,362.667 122.400 C 363.236 128.651,363.007 133.711,361.721 143.254 C 361.142 147.555,361.035 154.040,360.899 193.000 C 360.737 239.577,360.820 242.668,362.475 251.600 C 362.699 252.810,362.977 257.820,363.093 262.734 C 363.362 274.102,363.119 274.874,358.608 276.958 C 354.086 279.047,352.085 281.995,350.534 288.853 C 349.826 291.985,349.819 291.988,342.778 291.996 L 338.557 292.000 337.244 293.354 C 335.550 295.102,336.136 296.571,339.190 298.233 C 342.716 300.152,342.996 301.187,343.022 312.400 C 343.049 324.077,343.018 324.000,347.820 324.000 C 351.128 324.000,352.126 325.692,352.400 331.768 L 352.600 336.200 354.200 336.296 C 355.080 336.349,357.114 336.501,358.721 336.632 L 361.642 336.872 363.755 340.136 C 365.930 343.494,368.343 345.996,371.060 347.712 C 374.855 350.107,374.131 354.048,369.421 356.644 C 358.753 362.523,353.613 359.113,352.774 345.600 C 352.324 338.340,352.046 337.040,350.907 336.875 C 350.190 336.771,349.969 337.041,349.600 338.475 C 348.043 344.527,346.571 347.314,343.827 349.406 C 343.042 350.005,342.400 350.722,342.400 350.999 C 342.400 351.277,341.697 352.228,340.837 353.114 C 338.715 355.301,338.458 355.317,308.550 355.128 L 283.800 354.972 281.552 353.507 C 280.315 352.701,277.867 351.546,276.111 350.941 L 272.919 349.840 272.684 342.020 C 272.496 335.774,272.272 333.546,271.574 330.953 L 270.699 327.706 268.050 327.451 C 266.592 327.312,264.447 326.942,263.283 326.630 C 261.417 326.131,260.519 326.145,255.683 326.749 C 251.274 327.301,249.025 327.369,244.200 327.098 C 236.098 326.643,185.029 327.011,181.200 327.553 C 170.899 329.008,168.071 329.259,159.600 329.468 C 150.956 329.681,149.814 329.627,145.400 328.798 C 139.708 327.729,139.886 327.843,139.010 324.722 C 137.845 320.570,136.498 319.726,129.256 318.616 C 127.355 318.324,123.679 317.762,121.086 317.367 C 117.119 316.762,116.415 316.550,116.644 316.024 C 117.083 315.012,117.761 306.596,117.464 305.824 C 117.006 304.630,111.444 305.070,109.600 306.445 C 106.271 308.929,95.444 309.076,92.900 306.671 L 91.600 305.443 91.600 301.154 C 91.600 295.931,91.707 295.600,93.394 295.600 C 95.128 295.600,95.934 294.677,95.009 293.752 C 94.204 292.947,91.600 293.896,91.600 294.994 C 91.600 295.797,83.534 295.895,82.898 295.100 C 82.677 294.825,82.401 291.450,82.284 287.600 C 82.061 280.275,81.454 276.841,80.026 274.837 C 79.235 273.726,79.051 273.616,74.781 271.696 L 72.162 270.518 71.235 265.559 L 70.307 260.600 70.369 199.200 C 70.444 126.138,70.412 126.836,73.714 125.350 C 77.851 123.489,82.971 119.253,83.465 117.282 C 83.593 116.773,83.406 114.603,83.049 112.460 C 81.747 104.648,82.519 102.307,85.641 104.597 C 88.843 106.945,94.000 108.035,95.059 106.587 C 96.404 104.748,95.288 102.158,92.751 101.232 C 88.750 99.772,88.214 95.386,91.621 91.979 L 94.101 89.499 96.572 89.697 C 100.083 89.979,101.221 90.892,101.682 93.800 C 102.030 95.993,107.200 95.948,107.200 93.752 C 107.200 91.444,106.257 88.588,105.156 87.559 C 102.933 85.482,102.668 83.496,104.489 82.554 C 105.742 81.906,114.392 81.961,116.130 82.629 C 116.934 82.937,120.014 78.924,121.874 75.147 C 123.313 72.224,123.526 71.991,125.600 71.070 C 130.007 69.113,142.731 69.383,147.308 71.530 C 149.618 72.614,155.332 72.943,165.535 72.581 L 173.749 72.289 172.374 71.156 C 168.575 68.025,167.785 67.252,165.549 64.472 C 163.789 62.285,163.278 61.393,163.667 61.190 C 164.427 60.793,172.733 59.988,180.000 59.608 C 191.563 59.003,260.465 59.422,268.371 60.145 M189.400 126.602 C 182.238 127.280,180.800 127.556,180.800 128.251 C 180.800 133.050,173.559 136.356,162.967 136.393 C 159.561 136.405,158.014 138.078,157.592 142.203 C 157.049 147.523,156.285 148.550,152.420 149.161 C 149.379 149.642,149.476 149.171,150.217 159.843 C 151.023 171.454,151.191 228.355,150.427 230.800 C 150.186 231.570,149.876 234.014,149.738 236.231 C 149.465 240.620,149.389 240.421,151.963 242.107 C 153.875 243.359,154.785 244.733,155.547 247.515 C 156.318 250.334,159.579 253.162,163.348 254.281 C 165.813 255.013,168.672 257.661,169.053 259.564 C 169.452 261.562,170.750 261.975,178.000 262.412 C 184.805 262.822,195.231 262.385,198.294 261.561 L 199.988 261.106 198.923 260.253 C 198.337 259.784,196.770 258.680,195.441 257.800 C 191.206 254.997,190.030 251.376,190.052 241.200 C 190.065 235.440,190.526 234.043,192.794 232.897 C 194.907 231.830,195.382 231.040,195.985 227.589 C 196.653 223.763,197.517 220.860,198.688 218.502 C 199.987 215.884,199.533 213.979,196.974 211.309 C 194.665 208.899,190.955 209.771,185.273 214.061 L 183.097 215.704 177.940 216.094 C 171.990 216.543,172.248 216.645,170.261 213.062 C 166.573 206.411,166.600 204.928,170.444 202.979 L 172.287 202.044 183.044 202.792 C 195.479 203.658,232.562 204.228,243.364 203.719 C 249.160 203.446,250.932 203.514,255.752 204.200 L 261.376 205.000 261.672 206.200 C 261.835 206.860,262.074 208.402,262.203 209.626 C 262.656 213.906,264.382 215.370,269.539 215.849 C 272.960 216.167,272.771 216.037,274.432 219.200 C 275.753 221.715,279.030 225.447,281.309 227.032 L 282.419 227.804 277.309 231.232 L 272.200 234.659 271.679 236.763 C 271.043 239.329,271.278 239.700,274.131 240.633 C 277.531 241.745,279.256 242.786,281.407 245.025 L 283.448 247.150 284.925 243.075 C 285.737 240.834,286.401 238.587,286.401 238.083 C 286.399 236.513,285.203 231.284,284.437 229.501 L 283.707 227.800 284.854 225.510 C 285.485 224.250,286.451 221.842,287.001 220.159 L 288.000 217.098 288.000 193.618 C 288.000 169.485,287.742 163.814,286.398 158.400 C 285.988 156.750,285.456 154.230,285.215 152.800 C 284.515 148.652,283.869 147.539,281.497 146.397 C 279.005 145.196,278.059 143.974,277.425 141.140 C 276.627 137.574,274.187 136.257,267.397 135.727 C 260.554 135.193,257.921 133.719,256.147 129.429 C 255.448 127.740,255.426 127.727,252.622 127.264 C 244.673 125.952,201.077 125.495,189.400 126.602 M187.567 228.462 C 186.408 230.628,183.417 230.847,182.255 228.852 C 181.343 227.285,181.749 220.267,182.827 218.967 C 183.598 218.039,188.205 227.269,187.567 228.462 M204.096 238.732 C 203.719 238.971,203.833 239.279,204.544 239.947 L 205.496 240.842 205.729 239.951 C 206.100 238.530,205.325 237.952,204.096 238.732 M214.000 255.825 C 211.271 256.689,209.127 258.059,208.082 259.606 L 207.141 261.000 208.391 262.047 C 209.838 263.257,214.341 265.528,215.922 265.844 C 217.109 266.082,217.894 265.428,219.751 262.655 L 220.785 261.110 218.743 258.155 C 216.525 254.946,216.624 254.995,214.000 255.825 M326.092 303.018 C 324.038 305.674,324.040 305.089,326.067 309.272 L 327.749 312.744 328.827 312.186 C 333.210 309.920,334.463 303.661,330.893 301.863 C 328.322 300.568,327.912 300.666,326.092 303.018 M338.602 325.991 C 338.245 327.619,338.690 328.885,339.532 328.636 C 339.900 328.527,340.709 328.316,341.331 328.168 C 342.310 327.934,342.427 327.758,342.209 326.849 C 341.666 324.594,339.046 323.971,338.602 325.991 " stroke="none" fill="#ffffff" fill-rule="evenodd"></path></g></svg>